<?xml version="1.0" standalone="no"?>
<!DOCTYPE svg PUBLIC "-//W3C//DTD SVG 20010904//EN"
 "http://www.w3.org/TR/2001/REC-SVG-20010904/DTD/svg10.dtd">
<svg version="1.0" xmlns="http://www.w3.org/2000/svg"
 width="85.000000pt" height="85.000000pt" viewBox="0 0 85.000000 85.000000"
 preserveAspectRatio="xMidYMid meet">
<metadata>
Created by potrace 1.11, written by Peter Selinger 2001-2013
</metadata>
<g transform="translate(0.000000,85.000000) scale(0.100000,-0.100000)"
fill="#000000" stroke="none">
<path d="M720 799 c-19 -4 -51 -11 -70 -14 -20 -3 -47 -8 -60 -11 -14 -2 -59
-11 -100 -19 -62 -11 -303 -59 -360 -70 -8 -2 -36 -7 -61 -10 -26 -4 -51 -10
-57 -14 -15 -9 38 -271 55 -271 7 0 84 14 171 31 86 17 167 33 180 35 42 8 67
12 227 43 88 17 170 34 182 36 16 4 21 11 18 28 -3 12 -14 73 -26 135 -24 124
-21 120 -99 101z"/>
<path d="M635 435 c-60 -13 -207 -42 -325 -64 -308 -59 -312 -60 -306 -80 3
-9 7 -29 10 -46 26 -155 40 -205 55 -205 9 0 61 9 116 20 54 11 113 23 130 26
16 3 48 9 70 14 22 5 54 11 70 14 47 8 347 66 374 72 18 4 22 10 17 27 -3 12
-15 73 -27 135 -25 131 -9 124 -184 87z"/>
</g>
</svg>
